<svg width="1354" height="1157" xmlns="http://www.w3.org/2000/svg" xmlns:xlink="http://www.w3.org/1999/xlink" xml:space="preserve" overflow="hidden"><defs><clipPath id="clip0"><rect x="3825" y="7159" width="1354" height="1157"/></clipPath></defs><g clip-path="url(#clip0)" transform="translate(-3825 -7159)"><path d="M4451 7216C4170.99 7216 3944 7443.22 3944 7723.5 3944 8003.78 4170.99 8231 4451 8231 4731.01 8231 4958 8003.78 4958 7723.5 4958 7443.22 4731.01 7216 4451 7216Z" stroke="#3465A4" stroke-width="13.7717" stroke-linejoin="round" stroke-miterlimit="10" fill="#729FCF" fill-rule="evenodd" fill-opacity="0"/><path d="M4451 7690.5C4432.5 7690.5 4417.5 7705.5 4417.5 7724 4417.5 7742.5 4432.5 7757.5 4451 7757.5 4469.5 7757.5 4484.5 7742.5 4484.5 7724 4484.5 7705.5 4469.5 7690.5 4451 7690.5Z" stroke="#000000" stroke-width="0" stroke-linejoin="round" stroke-miterlimit="10" fill-rule="evenodd"/><path d="M4992 7825.5C4973.5 7825.5 4958.5 7840.5 4958.5 7859 4958.5 7877.5 4973.5 7892.5 4992 7892.5 5010.5 7892.5 5025.5 7877.5 5025.5 7859 5025.5 7840.5 5010.5 7825.5 4992 7825.5Z" stroke="#2A6099" stroke-width="0" stroke-linejoin="round" stroke-miterlimit="10" stroke-opacity="0" fill="#B2B2B2" fill-rule="evenodd"/><path d="M4941.5 8129.5C4922.72 8129.5 4907.5 8144.72 4907.5 8163.5 4907.5 8182.28 4922.72 8197.5 4941.5 8197.5 4960.28 8197.5 4975.5 8182.28 4975.5 8163.5 4975.5 8144.72 4960.28 8129.5 4941.5 8129.5Z" stroke="#2A6099" stroke-width="0" stroke-linejoin="round" stroke-miterlimit="10" stroke-opacity="0" fill="#B2B2B2" fill-rule="evenodd"/><path d="M4588.5 7159.5C4569.72 7159.5 4554.5 7174.5 4554.5 7193 4554.5 7211.5 4569.72 7226.5 4588.5 7226.5 4607.28 7226.5 4622.5 7211.5 4622.5 7193 4622.5 7174.5 4607.28 7159.5 4588.5 7159.5Z" stroke="#2A6099" stroke-width="0" stroke-linejoin="round" stroke-miterlimit="10" stroke-opacity="0" fill="#B2B2B2" fill-rule="evenodd"/><path d="M3876.5 7419.5C3857.72 7419.5 3842.5 7434.72 3842.5 7453.5 3842.5 7472.28 3857.72 7487.5 3876.5 7487.5 3895.28 7487.5 3910.5 7472.28 3910.5 7453.5 3910.5 7434.72 3895.28 7419.5 3876.5 7419.5Z" stroke="#2A6099" stroke-width="0" stroke-linejoin="round" stroke-miterlimit="10" stroke-opacity="0" fill="#B2B2B2" fill-rule="evenodd"/><path d="M4823 7267.5C4804.5 7267.5 4789.5 7282.72 4789.5 7301.5 4789.5 7320.28 4804.5 7335.5 4823 7335.5 4841.5 7335.5 4856.5 7320.28 4856.5 7301.5 4856.5 7282.72 4841.5 7267.5 4823 7267.5Z" stroke="#2A6099" stroke-width="0" stroke-linejoin="round" stroke-miterlimit="10" stroke-opacity="0" fill="#B2B2B2" fill-rule="evenodd"/><path d="M4248.5 8247.5C4229.72 8247.5 4214.5 8262.72 4214.5 8281.5 4214.5 8300.28 4229.72 8315.5 4248.5 8315.5 4267.28 8315.5 4282.5 8300.28 4282.5 8281.5 4282.5 8262.72 4267.28 8247.5 4248.5 8247.5Z" stroke="#2A6099" stroke-width="0" stroke-linejoin="round" stroke-miterlimit="10" stroke-opacity="0" fill="#B2B2B2" fill-rule="evenodd"/><path d="M3910.5 8044.5C3891.72 8044.5 3876.5 8059.72 3876.5 8078.5 3876.5 8097.28 3891.72 8112.5 3910.5 8112.5 3929.28 8112.5 3944.5 8097.28 3944.5 8078.5 3944.5 8059.72 3929.28 8044.5 3910.5 8044.5Z" stroke="#2A6099" stroke-width="0" stroke-linejoin="round" stroke-miterlimit="10" stroke-opacity="0" fill="#B2B2B2" fill-rule="evenodd"/><path d="M4045.5 7183.5C4026.72 7183.5 4011.5 7198.5 4011.5 7217 4011.5 7235.5 4026.72 7250.5 4045.5 7250.5 4064.28 7250.5 4079.5 7235.5 4079.5 7217 4079.5 7198.5 4064.28 7183.5 4045.5 7183.5Z" stroke="#2A6099" stroke-width="0" stroke-linejoin="round" stroke-miterlimit="10" stroke-opacity="0" fill="#B2B2B2" fill-rule="evenodd"/><path d="M4772.5 7690.5C4753.72 7690.5 4738.5 7705.5 4738.5 7724 4738.5 7742.5 4753.72 7757.5 4772.5 7757.5 4791.28 7757.5 4806.5 7742.5 4806.5 7724 4806.5 7705.5 4791.28 7690.5 4772.5 7690.5Z" stroke="#3465A4" stroke-width="0" stroke-linejoin="round" stroke-miterlimit="10" fill="#729FCF" fill-rule="evenodd"/><path d="M4671 8028.5C4652.5 8028.5 4637.5 8043.5 4637.5 8062 4637.5 8080.5 4652.5 8095.5 4671 8095.5 4689.5 8095.5 4704.5 8080.5 4704.5 8062 4704.5 8043.5 4689.5 8028.5 4671 8028.5Z" stroke="#3465A4" stroke-width="0" stroke-linejoin="round" stroke-miterlimit="10" fill="#729FCF" fill-rule="evenodd"/><path d="M4180.5 7808.5C4161.72 7808.5 4146.5 7823.72 4146.5 7842.5 4146.5 7861.28 4161.72 7876.5 4180.5 7876.5 4199.28 7876.5 4214.5 7861.28 4214.5 7842.5 4214.5 7823.72 4199.28 7808.5 4180.5 7808.5Z" stroke="#3465A4" stroke-width="0" stroke-linejoin="round" stroke-miterlimit="10" fill="#729FCF" fill-rule="evenodd"/><path d="M4755.5 7419.5C4736.72 7419.5 4721.5 7434.72 4721.5 7453.5 4721.5 7472.28 4736.72 7487.5 4755.5 7487.5 4774.28 7487.5 4789.5 7472.28 4789.5 7453.5 4789.5 7434.72 4774.28 7419.5 4755.5 7419.5Z" stroke="#3465A4" stroke-width="0" stroke-linejoin="round" stroke-miterlimit="10" fill="#729FCF" fill-rule="evenodd"/><path d="M4265.5 7335.5C4246.72 7335.5 4231.5 7350.5 4231.5 7369 4231.5 7387.5 4246.72 7402.5 4265.5 7402.5 4284.28 7402.5 4299.5 7387.5 4299.5 7369 4299.5 7350.5 4284.28 7335.5 4265.5 7335.5Z" stroke="#3465A4" stroke-width="0" stroke-linejoin="round" stroke-miterlimit="10" fill="#729FCF" fill-rule="evenodd"/><path d="M4444.9 7726.2 4265.23 7383.27 4277.43 7376.88 4457.1 7719.8ZM4262.28 7427.54 4264.99 7367.97 4315.51 7399.65C4318.73 7401.67 4319.7 7405.92 4317.68 7409.15 4315.66 7412.37 4311.41 7413.34 4308.19 7411.32L4267.67 7385.91 4278.21 7380.39 4276.03 7428.17C4275.86 7431.97 4272.64 7434.91 4268.84 7434.74 4265.04 7434.56 4262.1 7431.34 4262.28 7427.54Z"/><path d="M6.20964-2.97574 219.317 441.728 206.898 447.679-6.20964 2.97574ZM223.85 397.59 219.014 457.029 169.655 423.561C166.508 421.427 165.686 417.145 167.821 413.998 169.955 410.85 174.237 410.029 177.384 412.163L216.972 439.006 206.245 444.146 210.124 396.473C210.433 392.683 213.755 389.86 217.546 390.169 221.336 390.477 224.159 393.8 223.85 397.59Z" transform="matrix(-1 0 0 1 4450 7723)"/><path d="M4407.31 7531.88C4409.01 7531.88 4410.35 7532.44 4411.34 7533.56 4412.33 7534.68 4412.82 7536.15 4412.82 7537.96 4412.82 7539.31 4412.56 7540.7 4412.05 7542.13L4412.58 7542.33C4415.22 7538.74 4417.77 7536.11 4420.22 7534.43 4422.66 7532.76 4425.14 7531.92 4427.65 7531.92 4429.62 7531.92 4431.27 7532.07 4432.6 7532.36L4430.65 7541.44 4426.48 7541.44C4426.32 7540.31 4426.09 7539.43 4425.79 7538.81 4425.49 7538.19 4425.14 7537.75 4424.73 7537.51 4424.33 7537.27 4423.82 7537.15 4423.19 7537.15 4422.22 7537.15 4421.16 7537.57 4420.01 7538.4 4418.87 7539.24 4417.58 7540.55 4416.14 7542.33 4414.71 7544.12 4413.57 7545.83 4412.72 7547.48 4411.87 7549.13 4411.16 7551.22 4410.59 7553.76L4406.74 7571.31 4399.73 7571.31 4405.61 7545.62C4405.98 7544 4406.23 7542.74 4406.34 7541.85 4406.44 7540.96 4406.5 7540.21 4406.5 7539.62 4406.5 7538.54 4406.32 7537.75 4405.97 7537.27 4405.62 7536.78 4405.07 7536.54 4404.31 7536.54 4403.47 7536.54 4402.59 7536.88 4401.65 7537.57 4400.72 7538.26 4399.45 7539.51 4397.82 7541.32L4395.51 7539.05C4398 7536.46 4400.08 7534.61 4401.76 7533.52 4403.43 7532.43 4405.28 7531.88 4407.31 7531.88Z" fill-rule="evenodd"/><text fill="#000000" fill-opacity="0" font-family="Arial,Arial_MSFontService,sans-serif" font-size="39.4331" x="4395.51" y="7566.38">𝑟</text><path d="M4485.73 7561.74C4484.84 7561.74 4483.86 7562.03 4482.79 7562.61 4481.71 7563.2 4480.66 7564.07 4479.61 7565.22 4478.57 7566.37 4477.61 7567.8 4476.72 7569.5 4475.84 7571.19 4475.14 7573.14 4474.62 7575.35 4474.47 7576.42 4474.29 7577.47 4474.09 7578.5 4473.89 7579.54 4473.79 7580.5 4473.79 7581.39 4473.79 7583 4474.15 7584.14 4474.88 7584.8 4475.6 7585.47 4476.77 7585.8 4478.38 7585.8 4480.01 7585.8 4481.51 7585.28 4482.88 7584.24 4484.25 7583.2 4485.42 7581.83 4486.4 7580.14 4487.39 7578.46 4488.16 7576.56 4488.71 7574.45 4489.27 7572.35 4489.55 7570.22 4489.55 7568.08 4489.55 7565.96 4489.24 7564.37 4488.64 7563.31 4488.03 7562.26 4487.07 7561.74 4485.73 7561.74ZM4445.74 7560.69C4444.57 7560.69 4443.48 7560.95 4442.46 7561.47 4441.45 7561.98 4440.53 7562.69 4439.69 7563.58 4438.86 7564.48 4438.12 7565.51 4437.47 7566.68 4436.83 7567.85 4436.28 7569.09 4435.84 7570.4 4435.39 7571.71 4435.05 7573.06 4434.82 7574.44 4434.59 7575.82 4434.48 7577.14 4434.48 7578.42 4434.48 7580.56 4434.78 7582.15 4435.39 7583.2 4435.99 7584.24 4436.97 7584.76 4438.32 7584.76 4439 7584.76 4439.65 7584.64 4440.27 7584.4 4440.9 7584.16 4441.56 7583.79 4442.25 7583.27 4444 7581.9 4445.49 7580.23 4446.72 7578.27 4447.95 7576.3 4448.88 7573.98 4449.49 7571.3 4449.77 7570.07 4449.99 7568.95 4450.15 7567.96 4450.31 7566.97 4450.39 7566.02 4450.39 7565.13 4450.39 7563.54 4450.01 7562.41 4449.27 7561.72 4448.52 7561.04 4447.35 7560.69 4445.74 7560.69ZM4445.2 7557.74C4446.77 7557.74 4448.16 7557.93 4449.36 7558.3 4450.56 7558.66 4451.66 7559.16 4452.65 7559.8L4455.54 7557.74 4457.95 7558.37 4453.45 7577.88C4453.2 7578.99 4453.02 7579.91 4452.92 7580.63 4452.82 7581.36 4452.77 7582 4452.77 7582.56 4452.77 7583.31 4452.92 7583.86 4453.23 7584.19 4453.54 7584.53 4453.98 7584.7 4454.56 7584.7 4454.91 7584.7 4455.27 7584.63 4455.61 7584.49 4455.96 7584.35 4456.34 7584.13 4456.74 7583.84 4457.15 7583.54 4457.6 7583.16 4458.08 7582.69 4458.57 7582.22 4459.12 7581.66 4459.74 7581.01 4460.06 7581.34 4460.38 7581.68 4460.72 7582 4461.06 7582.33 4461.39 7582.65 4461.7 7582.97 4460.71 7583.99 4459.81 7584.85 4458.99 7585.58 4458.18 7586.3 4457.39 7586.9 4456.63 7587.37 4455.86 7587.83 4455.11 7588.17 4454.38 7588.38 4453.64 7588.59 4452.88 7588.69 4452.08 7588.69 4450.65 7588.69 4449.54 7588.23 4448.75 7587.31 4447.95 7586.38 4447.56 7585.12 4447.56 7583.51 4447.56 7582.62 4447.7 7581.76 4447.97 7580.95L4447.56 7580.77C4446.54 7582.18 4445.56 7583.38 4444.61 7584.37 4443.65 7585.37 4442.71 7586.18 4441.78 7586.83 4440.84 7587.48 4439.9 7587.95 4438.95 7588.24 4438 7588.54 4437 7588.69 4435.97 7588.69 4433.61 7588.69 4431.78 7587.84 4430.49 7586.15 4429.2 7584.45 4428.55 7581.98 4428.55 7578.74 4428.55 7576.82 4428.76 7574.97 4429.16 7573.19 4429.57 7571.41 4430.15 7569.74 4430.89 7568.18 4431.64 7566.63 4432.52 7565.21 4433.56 7563.93 4434.59 7562.64 4435.72 7561.55 4436.95 7560.63 4438.18 7559.72 4439.49 7559.01 4440.88 7558.5 4442.27 7558 4443.71 7557.74 4445.2 7557.74ZM4478.77 7547.5 4480.91 7547.5 4476.74 7564.51 4477.16 7564.71C4478.17 7563.52 4479.14 7562.49 4480.06 7561.6 4480.98 7560.72 4481.89 7559.99 4482.77 7559.43 4483.65 7558.86 4484.53 7558.44 4485.41 7558.16 4486.28 7557.88 4487.18 7557.74 4488.12 7557.74 4490.46 7557.74 4492.27 7558.6 4493.54 7560.31 4494.81 7562.01 4495.44 7564.51 4495.44 7567.78 4495.44 7570.64 4495 7573.34 4494.12 7575.87 4493.24 7578.4 4492.04 7580.62 4490.53 7582.53 4489.02 7584.43 4487.27 7585.94 4485.27 7587.04 4483.28 7588.14 4481.17 7588.69 4478.94 7588.69 4477.51 7588.69 4476.19 7588.55 4474.98 7588.26 4473.77 7587.97 4472.59 7587.49 4471.44 7586.81 4470.94 7587.09 4470.44 7587.4 4469.92 7587.74 4469.4 7588.08 4468.92 7588.39 4468.46 7588.69 4468.1 7588.59 4467.72 7588.5 4467.33 7588.41 4466.93 7588.32 4466.55 7588.21 4466.2 7588.1L4473.34 7556.17C4473.56 7555.17 4473.73 7554.36 4473.84 7553.72 4473.94 7553.09 4474 7552.53 4474 7552.06 4474 7551.68 4473.94 7551.35 4473.82 7551.07 4473.7 7550.79 4473.49 7550.57 4473.2 7550.4 4472.9 7550.23 4472.5 7550.11 4472 7550.03 4471.51 7549.95 4470.88 7549.9 4470.13 7549.88L4470.57 7547.86Z" fill-rule="evenodd"/><text fill="#000000" fill-opacity="0" font-family="Arial,Arial_MSFontService,sans-serif" font-size="41.1929" x="4428.55" y="7583.54">𝑎𝑏</text><path d="M3903.89 7690.28C3906.37 7690.28 3908.68 7690.45 3910.8 7690.79 3912.92 7691.13 3915.26 7691.7 3917.83 7692.51L3915.56 7702.93 3911.67 7702.93C3911.56 7700.63 3911.21 7698.83 3910.61 7697.52 3910.02 7696.21 3909.17 7695.27 3908.06 7694.7 3906.95 7694.13 3905.48 7693.85 3903.64 7693.85 3901.4 7693.85 3899.43 7694.31 3897.73 7695.23 3896.02 7696.15 3894.73 7697.4 3893.84 7698.98 3892.94 7700.56 3892.5 7702.32 3892.5 7704.26 3892.5 7706.29 3893.03 7708.07 3894.1 7709.59 3895.17 7711.12 3897.21 7712.92 3900.24 7715 3902.89 7716.84 3904.91 7718.48 3906.3 7719.93 3907.69 7721.37 3908.72 7722.91 3909.38 7724.53 3910.04 7726.15 3910.37 7728.03 3910.37 7730.16 3910.37 7733.46 3909.58 7736.38 3908 7738.94 3906.42 7741.49 3904.19 7743.46 3901.31 7744.85 3898.44 7746.24 3895.16 7746.94 3891.48 7746.94 3889 7746.94 3886.32 7746.74 3883.44 7746.33 3880.56 7745.93 3877.99 7745.41 3875.72 7744.79L3878.15 7733.65 3882.04 7733.65C3882.04 7736.94 3882.8 7739.39 3884.33 7741 3885.86 7742.61 3888.22 7743.41 3891.4 7743.41 3895.08 7743.41 3897.97 7742.41 3900.08 7740.41 3902.18 7738.42 3903.24 7735.63 3903.24 7732.07 3903.24 7730.42 3902.95 7728.97 3902.37 7727.71 3901.79 7726.45 3900.91 7725.25 3899.73 7724.1 3898.56 7722.95 3896.86 7721.64 3894.65 7720.15 3892.65 7718.8 3890.98 7717.47 3889.66 7716.16 3888.34 7714.85 3887.28 7713.38 3886.5 7711.76 3885.72 7710.14 3885.32 7708.33 3885.32 7706.33 3885.32 7703.14 3886.09 7700.33 3887.63 7697.9 3889.17 7695.47 3891.35 7693.59 3894.16 7692.27 3896.97 7690.94 3900.21 7690.28 3903.89 7690.28Z" fill-rule="evenodd"/><text fill="#000000" fill-opacity="0" font-family="Arial,Arial_MSFontService,sans-serif" font-size="56.6572" x="3875.72" y="7739.86">𝑆</text><path d="M4380.04 8015.32C4381.5 8015.32 4382.61 8015.48 4383.36 8015.8L4381.62 8023.58 4378.5 8023.58C4378.45 8023.04 4378.3 8022.6 4378.07 8022.25 4377.85 8021.89 4377.42 8021.72 4376.8 8021.72 4376.23 8021.72 4375.55 8021.96 4374.75 8022.45 4373.95 8022.93 4372.89 8023.78 4371.55 8024.98 4370.21 8026.18 4368.22 8028.1 4365.57 8030.72L4370.03 8045.51C4370.62 8047.45 4371.2 8048.81 4371.75 8049.58 4372.31 8050.35 4373.08 8050.74 4374.08 8050.74 4374.79 8050.74 4375.52 8050.47 4376.29 8049.95 4377.06 8049.42 4378.16 8048.39 4379.59 8046.85L4381.95 8049.03C4379.95 8051.22 4378.06 8052.83 4376.29 8053.86 4374.52 8054.88 4372.76 8055.4 4371 8055.4 4369.14 8055.4 4367.64 8054.82 4366.5 8053.65 4365.37 8052.49 4364.41 8050.59 4363.63 8047.94L4359.98 8035.09C4358.06 8036.52 4356.13 8037.61 4354.18 8038.33L4350.66 8054.75 4343.61 8054.75 4349.97 8026.3C4350.43 8024.25 4350.66 8022.64 4350.66 8021.48 4350.66 8020.21 4350.36 8019.34 4349.77 8018.88 4349.17 8018.42 4348.04 8018.18 4346.36 8018.15L4346.81 8016 4356.66 8015.64 4359.09 8015.64 4354.87 8034.65C4356.2 8034.11 4358 8032.83 4360.28 8030.82 4362.57 8028.8 4365.05 8026.38 4367.72 8023.54 4370.07 8021.06 4371.85 8019.31 4373.05 8018.29 4374.25 8017.28 4375.4 8016.53 4376.49 8016.04 4377.59 8015.56 4378.77 8015.32 4380.04 8015.32ZM4405.99 7996.79 4408.34 7996.79 4401.37 8024.88 4401.86 8025.04C4404.43 8021.64 4406.85 8019.17 4409.13 8017.65 4411.42 8016.12 4413.72 8015.36 4416.04 8015.36 4418.56 8015.36 4420.49 8016.08 4421.84 8017.52 4423.19 8018.97 4423.87 8020.98 4423.87 8023.54 4423.87 8025.24 4423.47 8027.66 4422.69 8030.8L4420.06 8041.42C4419.33 8044.36 4418.96 8046.44 4418.96 8047.66 4418.96 8048.74 4419.14 8049.52 4419.49 8050.01 4419.84 8050.49 4420.39 8050.74 4421.15 8050.74 4421.96 8050.74 4422.83 8050.41 4423.74 8049.74 4424.66 8049.08 4425.96 8047.82 4427.63 8045.95L4429.94 8048.22C4427.35 8050.95 4425.22 8052.83 4423.56 8053.86 4421.9 8054.88 4420.03 8055.4 4417.95 8055.4 4416.19 8055.4 4414.79 8054.78 4413.75 8053.53 4412.71 8052.29 4412.19 8050.68 4412.19 8048.71 4412.19 8046.95 4412.64 8044.37 4413.53 8040.97L4415.27 8033.96C4415.9 8031.45 4416.31 8029.56 4416.53 8028.3 4416.75 8027.05 4416.85 8026.07 4416.85 8025.37 4416.85 8023.45 4416.54 8022.09 4415.92 8021.29 4415.3 8020.5 4414.29 8020.1 4412.88 8020.1 4411.77 8020.1 4410.55 8020.56 4409.19 8021.48 4407.84 8022.39 4406.42 8023.79 4404.94 8025.67 4403.45 8027.55 4402.27 8029.34 4401.39 8031.06 4400.51 8032.78 4399.82 8034.82 4399.31 8037.2L4395.62 8054.75 4388.61 8054.75 4399.02 8008.43C4399.67 8005.53 4399.99 8003.54 4399.99 8002.43 4399.99 8001.29 4399.65 8000.5 4398.96 8000.04 4398.27 7999.58 4397.04 7999.32 4395.25 7999.27L4395.74 7997.16Z" fill-rule="evenodd"/><text fill="#000000" fill-opacity="0" font-family="Arial,Arial_MSFontService,sans-serif" font-size="58.6025" x="4343.61" y="8048.07">𝜅ℎ</text><path d="M4539.72 7721C4536.94 7721 4534.44 7722.12 4532.22 7724.36 4530.01 7726.6 4528.28 7729.61 4527.03 7733.38 4525.79 7737.15 4525.17 7740.91 4525.17 7744.67 4525.17 7747.48 4525.55 7749.58 4526.32 7750.97 4527.09 7752.36 4528.38 7753.05 4530.19 7753.05 4531.98 7753.05 4533.73 7752.28 4535.44 7750.74 4537.16 7749.2 4538.93 7747.01 4540.75 7744.16 4542.58 7741.31 4543.87 7738.02 4544.62 7734.29L4544.99 7732.55C4545.23 7731.44 4545.39 7730.48 4545.47 7729.67 4545.55 7728.86 4545.59 7727.98 4545.59 7727.04 4545.59 7724.96 4545.15 7723.43 4544.26 7722.46 4543.37 7721.48 4541.85 7721 4539.72 7721ZM4538.91 7717.8C4540.66 7717.8 4542.31 7717.99 4543.83 7718.38 4545.36 7718.78 4546.93 7719.47 4548.55 7720.47L4552.28 7717.8 4554.88 7718.44 4548.92 7744.14C4548.32 7746.71 4548.03 7748.7 4548.03 7750.14 4548.03 7751.22 4548.2 7752 4548.55 7752.49 4548.9 7752.97 4549.46 7753.22 4550.21 7753.22 4551.03 7753.22 4551.89 7752.89 4552.81 7752.22 4553.73 7751.56 4555.02 7750.3 4556.7 7748.43L4559.01 7750.7C4556.58 7753.3 4554.5 7755.14 4552.79 7756.24 4551.07 7757.33 4549.22 7757.88 4547.22 7757.88 4545.54 7757.88 4544.2 7757.32 4543.2 7756.22 4542.2 7755.11 4541.7 7753.64 4541.7 7751.8 4541.7 7750.31 4542.01 7748.73 4542.64 7747.06L4542.11 7746.89C4539.52 7750.68 4537.06 7753.45 4534.73 7755.2 4532.41 7756.96 4529.95 7757.84 4527.36 7757.84 4524.39 7757.84 4522.08 7756.72 4520.45 7754.47 4518.81 7752.23 4518 7749.08 4518 7745.03 4518 7740.38 4518.91 7735.92 4520.73 7731.64 4522.55 7727.35 4525.06 7723.98 4528.25 7721.5 4531.44 7719.03 4534.99 7717.8 4538.91 7717.8Z" fill-rule="evenodd"/><text fill="#000000" fill-opacity="0" font-family="Arial,Arial_MSFontService,sans-serif" font-size="40.0815" x="4518" y="7752.87">𝑎</text><path d="M4220.44 7424.15C4219.14 7424.15 4217.86 7424.56 4216.61 7425.39 4215.35 7426.21 4213.95 7427.57 4212.41 7429.48 4210.87 7431.38 4209.62 7433.33 4208.64 7435.33 4207.67 7437.33 4206.85 7439.89 4206.17 7442.99L4205.81 7444.7C4205.4 7446.59 4205.2 7448.42 4205.2 7450.21 4205.2 7452.34 4205.66 7453.88 4206.6 7454.83 4207.53 7455.77 4209.07 7456.25 4211.24 7456.25 4212.34 7456.25 4213.4 7456.06 4214.4 7455.7 4215.4 7455.33 4216.42 7454.73 4217.46 7453.9 4218.5 7453.06 4219.48 7451.96 4220.42 7450.59 4221.35 7449.23 4222.21 7447.55 4222.99 7445.55 4223.77 7443.55 4224.38 7441.41 4224.81 7439.12 4225.25 7436.84 4225.46 7434.66 4225.46 7432.58 4225.46 7429.77 4225.06 7427.66 4224.27 7426.26 4223.47 7424.85 4222.19 7424.15 4220.44 7424.15ZM4213.34 7400.85 4215.69 7400.85 4208.56 7429.21 4209.09 7429.38C4211.71 7425.86 4214.17 7423.32 4216.46 7421.76 4218.76 7420.19 4221.06 7419.41 4223.35 7419.41 4226.3 7419.41 4228.59 7420.53 4230.22 7422.77 4231.86 7425.01 4232.68 7428.17 4232.68 7432.25 4232.68 7436.71 4231.78 7441.1 4229.98 7445.41 4228.18 7449.71 4225.69 7453.13 4222.5 7455.66 4219.31 7458.19 4215.75 7459.45 4211.8 7459.45 4208.21 7459.45 4205.02 7458.57 4202.24 7456.81L4198.51 7459.45 4195.92 7458.8 4206.41 7412.48C4207.04 7409.72 4207.35 7407.72 4207.35 7406.48 4207.35 7405.34 4207 7404.55 4206.31 7404.09 4205.62 7403.63 4204.39 7403.37 4202.6 7403.32L4203.09 7401.21Z" fill-rule="evenodd"/><text fill="#000000" fill-opacity="0" font-family="Arial,Arial_MSFontService,sans-serif" font-size="58.6025" x="4195.92" y="7452.12">𝑏</text><path d="M5144.5 7402.5C5125.72 7402.5 5110.5 7417.72 5110.5 7436.5 5110.5 7455.28 5125.72 7470.5 5144.5 7470.5 5163.28 7470.5 5178.5 7455.28 5178.5 7436.5 5178.5 7417.72 5163.28 7402.5 5144.5 7402.5Z" stroke="#2A6099" stroke-width="0" stroke-linejoin="round" stroke-miterlimit="10" stroke-opacity="0" fill="#B2B2B2" fill-rule="evenodd"/></g></svg>